# xmcd
#
# Track frame offsets:
# 150
# 9342
# 24039
# 42951
# 53423
# 64590
# 75310
# 83931
# 95478
# 107384
#
# Disc length: 1568 seconds
#
#
# Revision: 4
# Processed by: cddbd v1.5.2PL0 Copyright (c) Steve Scherf et al.
# Submitted via: FreeRIP 2.944 
#
DISCID=5c061e0a
DTITLE=Various Artist - Country Christmas - Christmas Treasures
DYEAR=2009
DGENRE=Country
TTITLE0=Rockin' Around The Christmas Tree - Donna Fargo
TTITLE1=Silver Bells - Jeannie C. Riley
TTITLE2=Have Yourself A Merry Little Christmas - Eddie Raven
TTITLE3=Sleigh Bells - Gene Autry
TTITLE4=Rudolph The Red Nosed Reindeer - Skeeter Davis
TTITLE5=Away In A Manger - Kitty Wells
TTITLE6=Frosty The Snowman - Gene Autry
TTITLE7=Santa Claus Is Coming To Town - Skeeter Davis
TTITLE8=Jingle Bells - Donna Fargo
TTITLE9=Winter Wonderland - Lacy J Dalton
EXTD=LIF 461025
EXTT0=
EXTT1=
EXTT2=
EXTT3=
EXTT4=
EXTT5=
EXTT6=
EXTT7=
EXTT8=
EXTT9=
PLAYORDER=
